<?xml version="1.0" encoding="utf-8"?>
<!-- Generator: Adobe Illustrator 27.4.1, SVG Export Plug-In . SVG Version: 6.00 Build 0)  -->
<svg version="1.1" id="Layer_1" xmlns="http://www.w3.org/2000/svg" xmlns:xlink="http://www.w3.org/1999/xlink" x="0px" y="0px"
	 viewBox="0 0 1198 1048" style="enable-background:new 0 0 1198 1048;" xml:space="preserve">
<style type="text/css">
	.st0{opacity:0.66;}
	.st1{fill:#00AFA1;}
</style>
<g id="Layer_1_00000114778716128491485420000002384255420205793194_" class="st0">
	<g>
		<path class="st1" d="M390.6,724.2c-2.2-9.4-15-16.3-23.1-9.9c-49.7,39.4-102,75-154.3,110.4c-6,4.1-9.5,12.4-7.1,19.6
			c0,7.4,4.3,13.9,11.4,16.2c61.1,19.6,122.8,37.3,185,53.1c5.5,1.4,11.3,0,15.3-4.2c4.4-4.6,4.9-10,4.1-16.1
			C414.2,836.4,403.7,780,390.6,724.2z M252.7,837.2c38.2-26,76.2-52.4,112.9-80.5c8.7,39.4,16,79.2,22.1,119.2
			C342.5,864,297.5,851.1,252.7,837.2z"/>
		<path class="st1" d="M673.4,300.8c28.1,9,56.5,17.2,85,24.4c2.5,0.6,5.2,0,7-2c2-2.1,2.2-4.6,1.9-7.4
			c-3.6-26.1-8.3-52.1-14.4-77.7c-1-4.3-6.9-7.5-10.6-4.5c-22.9,18.1-46.9,34.5-70.9,50.8c-2.8,1.9-4.4,5.7-3.2,9
			C668.1,296.7,670.1,299.7,673.4,300.8z M747.6,302.2c-0.2,0-0.3-0.1-0.5-0.1l0.1-0.1c0.1-0.1,0.2-0.2,0.3-0.4
			C747.5,301.8,747.5,302,747.6,302.2z M712.8,284c6.7-4.6,13.4-9.2,19.8-14.1c1.5,6.9,2.8,13.9,3.9,20.9
			C728.6,288.7,720.7,286.4,712.8,284z"/>
		<path class="st1" d="M225,440.4c6.3,6.5,16,7.3,23.3,1.9c10.5-7.9,112.4-93.7,121.5-103.1c5.8-6,8.5-15.4,1.8-22.2
			c-5.5-5.6-17-8.4-23.3-1.9c-9.1,9.4-110.9,95.2-121.5,103.1C220.1,423.3,219.1,434.3,225,440.4z"/>
		<path class="st1" d="M185.3,411.1c5.9,6.1,16.5,7.8,23.3,1.9c11.1-9.7,114.3-96.6,125.5-106.3c6.3-5.5,8.1-15.8,1.8-22.2
			c-5.9-6.1-16.5-7.8-23.3-1.9c-11.1,9.7-114.3,96.6-125.5,106.3C180.8,394.4,179,404.7,185.3,411.1z"/>
		<path class="st1" d="M919.1,229.4c-3.8-7.7-14.7-10.6-21.6-5.9c-7.5,5.1-9.7,14.3-5.7,22.6c22.9,46.7,19.2,36.4,48.4,79.1
			c6.1,8.9,16.7,10.9,24.7,3.3c12.3-11.6,24.6-23.2,36.9-34.8c6.2-5.8,12.3-11.6,18.5-17.4c1.6-1.5,3.2-3,4.8-4.6
			c1.5,3.5,3,6.9,4.5,10.4c3.6,8.2,7.1,16.4,10.7,24.6c6.9,15.8,13.7,31.7,20.6,47.5c4.3,9.9,18.2,10.2,24.7,3.3
			c18.8-19.6,36.7-40.2,53.5-61.7c2.4,3.9,4.8,7.9,7,12c2.8,5,5.4,10.1,7.8,15.3c1.2,2.6,2.4,5.2,3.5,7.8c0.6,1.3,1.1,2.6,1.7,4
			c0.2,0.5,0.4,0.9,0.4,1c0,0,0.1,0.3,0.5,1.4c3.1,8,10.6,14.5,19.4,11.5c7.3-2.5,14.3-11.7,11-20.3c-10.1-25.9-23.1-49.4-39.5-71.5
			c-4.8-6.5-17.5-6.4-22.3,0c-15.6,20.9-32.1,40.9-49.5,60.1c-4.9-11.4-9.9-22.8-14.8-34.1l-11.4-26.4c-4.1-9.6-7.6-20.3-18.3-23.6
			c-12.1-3.8-21,5.1-29.2,12.9c-6.8,6.4-13.7,12.9-20.5,19.3c-9.5,9-19.1,17.9-28.6,26.9C931.7,254.5,939,270.3,919.1,229.4z"/>
		<path class="st1" d="M147.3,605.2c9.3-7.7,18.6-15.5,27.9-23.2c15.5,45.1,31.1,90.2,46.6,135.3c3.1,8.9,13.6,15.1,22.4,11.8
			c8.8-3.3,14-12.8,10.7-22.3c-18.4-53.4-36.7-106.7-55.1-160.1c-3.5-10.2-17.8-17.1-26.6-9.8c-9.7,8-19.3,16-29,24.1
			c-18.3-45.6-36.6-91.2-54.9-136.8c-3.5-8.7-13.3-15.2-22.4-11.8c-8.4,3.1-14.4,12.9-10.7,22.3c21.5,53.6,43,107.1,64.5,160.7
			C124.7,605.3,138.2,612.8,147.3,605.2z"/>
		<path class="st1" d="M760,676c-0.2-8.5-8.6-15.7-17-14.4c-8.9,1.4-15.3,8.8-15,17.9c0.3,13.2,11.2,145.9,13.6,158.8
			c1.5,8.2,7.7,15.8,17,14.4c7.8-1.2,16.7-9,15-17.9C771.2,821.9,760.3,689.1,760,676z"/>
		<path class="st1" d="M806.9,620.8c-0.8-8.4-8.2-15.7-17-14.4c-8.4,1.3-15.9,8.9-15,17.9c1.5,14.7,12.5,149.2,13.9,163.9
			c0.8,8.4,8.2,15.7,17,14.4c8.4-1.3,15.9-8.9,15-17.9C823.3,809.6,812.4,675,806.9,620.8z"/>
		<path class="st1" d="M1018.1,743.7c-4-8.8-16.6-15.1-24.6-7.8c-8.1,7.4-16.3,14.9-24.4,22.3c-16.1-40.4-32.2-80.8-48.4-121.2
			c-3.2-8-13.1-13.1-20.9-9.8c-7.9,3.3-12.2,12.2-8.7,20.8c19.1,47.8,38.2,95.6,57.2,143.4c3.6,9.1,16.9,14.8,24.6,7.8
			c8.4-7.7,16.9-15.5,25.3-23.2c18.7,40.7,37.3,81.5,56,122.2c3.6,7.8,12.8,13.2,20.9,9.8c7.5-3.2,12.6-12.4,8.7-20.8
			C1062,839.4,1040.1,791.5,1018.1,743.7z"/>
		<path class="st1" d="M859.9,892.3c8.2,0,16.1-7.6,15.8-16.5c-0.4-8.9-6.9-16.5-15.8-16.5c-8.2,0-16.1,7.6-15.8,16.5
			C844.5,884.8,851,892.3,859.9,892.3z"/>
		<path class="st1" d="M55.1,597.5c0.4,8.9,6.9,16.5,15.8,16.5c8.2,0,16.1-7.6,15.8-16.5c-0.4-8.9-6.9-16.5-15.8-16.5
			C62.7,581,54.8,588.6,55.1,597.5z"/>
		<path class="st1" d="M987.6,609.7c-8.2,0-16.1,7.6-15.8,16.5c0.4,8.9,6.9,16.5,15.8,16.5c8.2,0,16.1-7.6,15.8-16.5
			C1002.9,617.3,996.4,609.7,987.6,609.7z"/>
		<path class="st1" d="M1154.7,509.2L1154.7,509.2c-8.1-4.2-18.1-1.9-23.5,5.4c-3.8,5-8.6,10.7-14.5,15.8
			c-21.6,18.8-38.3,13.9-48.9,8.6c-20-10-27.1-23.2-22.8-42.9c0.9-4.2,5.4-13.2,15.1-26.1c9.3-12.2,18.7-34.6,14.6-57.6
			c-2.9-16-11.7-29.2-25.7-38.1c-23.4-14.9-44-14-59.4-7.8c-13.2,5.3-15.8,23-4.7,31.9c0,0,8.7,6.6,19.5,2.5
			c7.2-2.7,15.3-0.9,24.5,4.9c5.1,3.2,7.9,7.4,9,13.1c1.7,9.8-2.5,21.7-7.6,28.3c-12.2,15.9-19.5,29.7-22,40.8
			c-5.4,25-0.1,46.9,15.1,63.9c7.1,7.9,16.3,14.7,27.5,20.4c30.8,15.4,63.1,10.2,91-14.6c7.6-6.8,14-14.2,18.9-20.7
			C1168,527.8,1165,514.5,1154.7,509.2z"/>
		<path class="st1" d="M86,782.8c-27.2,0-49.4,22.2-49.4,49.4s22.2,49.4,49.4,49.4s49.4-22.2,49.4-49.4S113.2,782.8,86,782.8z
			 M86,851.5c-10.6,0-19.3-8.6-19.3-19.3c0-10.6,8.6-19.3,19.3-19.3s19.3,8.6,19.3,19.3S96.6,851.5,86,851.5z"/>
		<path class="st1" d="M913.7,443.8c0-38.4-31.2-69.7-69.7-69.7c-38.4,0-69.7,31.2-69.7,69.7s31.2,69.7,69.7,69.7
			C882.5,513.4,913.7,482.2,913.7,443.8z M811.8,443.8c0-17.8,14.5-32.3,32.3-32.3s32.3,14.5,32.3,32.3s-14.5,32.3-32.3,32.3
			C826.3,476.1,811.8,461.6,811.8,443.8z"/>
		<path class="st1" d="M387.7,563.6c27.7,0,50.2-22.5,50.2-50.2s-22.5-50.2-50.2-50.2s-50.2,22.5-50.2,50.2S360.1,563.6,387.7,563.6
			z M387.7,500.6c7.1,0,12.8,5.7,12.8,12.8c0,7.1-5.7,12.8-12.8,12.8c-7.1,0-12.8-5.7-12.8-12.8
			C374.9,506.4,380.7,500.6,387.7,500.6z"/>
		<path class="st1" d="M58.3,284.4c5.7,16.6,19.1,30.4,36.8,37.9c12.1,5.1,25.4,6.9,38.4,5.3c12.5-1.5,19.8-15,14.4-26.4l-0.1-0.1
			c-3.5-7.3-11.3-11.4-19.3-10.5c-6.5,0.7-13-0.1-18.9-2.7c-7.8-3.3-13.7-9.1-16-15.6c-2.8-8.1-0.3-18.1,5.8-26.4
			c4.7-6.4,4.6-15.1,0-21.6l-0.1-0.2c-7.3-10.3-22.6-10.5-30.1-0.3C55.9,241.8,51.4,264.4,58.3,284.4z"/>
	</g>
</g>
<g id="Layer_2_00000126290319125253082820000017908635756373256850_" class="st0">
</g>
</svg>
