<?xml version="1.0" encoding="utf-8"?>
<!-- Generator: Adobe Illustrator 27.4.1, SVG Export Plug-In . SVG Version: 6.00 Build 0)  -->
<svg version="1.1" id="Layer_1" xmlns="http://www.w3.org/2000/svg" xmlns:xlink="http://www.w3.org/1999/xlink" x="0px" y="0px"
	 viewBox="0 0 1459 1048" style="enable-background:new 0 0 1459 1048;" xml:space="preserve">
<style type="text/css">
	.st0{fill:#FF5E54;}
</style>
<g id="Layer_2_00000096061172766915527070000017190751085984540576_">
</g>
<g id="Layer_2_00000029008057289924901870000003303777381512782465_">
</g>
<g>
	<path class="st0" d="M189.6,306.2c-33.8,9-68,15.7-102.2,22.2c-4,0.8-7.6,4.2-7.8,8.4c-1.6,3.6-0.9,7.8,2.2,10.6
		c26.6,23.3,54,45.8,81.9,67.3c2.5,1.8,5.7,2.5,8.7,1.1c3.2-1.4,4.6-4,5.6-7.2c8.5-30.4,15.6-61.3,21.1-92.4
		C200,311,195.1,304.7,189.6,306.2z M156.1,366.5c-7.8-6.2-15.4-12.4-22.9-18.8c9.6-1.9,19.1-3.8,28.5-6.1
		C160.1,349.9,158.2,358.2,156.1,366.5z M162.8,384.2c-0.2-0.1-0.3-0.3-0.5-0.3l0.2-0.1c0.2-0.1,0.3-0.1,0.5-0.3
		C162.9,383.7,162.8,384,162.8,384.2z"/>
	<path class="st0" d="M1427.8,923.3c-33.8,9-68,15.7-102.2,22.2c-4,0.8-7.6,4.2-7.8,8.4c-1.6,3.6-0.9,7.8,2.2,10.6
		c26.6,23.3,54,45.8,81.9,67.3c2.5,1.8,5.7,2.5,8.7,1.1c3.2-1.4,4.6-4,5.6-7.2c8.5-30.4,15.6-61.3,21.1-92.4
		C1438.2,928.1,1433.3,921.8,1427.8,923.3z M1394.3,983.6c-7.8-6.2-15.4-12.4-22.9-18.8c9.6-1.9,19.1-3.8,28.5-6.1
		C1398.3,967,1396.4,975.3,1394.3,983.6z M1401,1001.3c-0.2-0.1-0.3-0.3-0.5-0.3l0.2-0.1c0.2-0.1,0.3-0.1,0.5-0.3
		C1401.1,1000.8,1401,1001.1,1401,1001.3z"/>
	<path class="st0" d="M1110.6,578.5c3.6,5.9,7,11.9,10.2,17.9c1.6,3.1,3.1,6.1,4.6,9.1c0.8,1.5,1.5,3.1,2.3,4.7
		c0.3,0.6,0.5,1,0.5,1.2c0,0,0.2,0.4,0.7,1.6c4.1,9.4,13.5,16.8,23.9,12.7c8.6-3.4,16.4-14.8,12.1-24.9
		c-13.5-30.5-30.4-57.9-51.2-83.5c-6.1-7.5-21.3-6.8-26.7,1.2c-17.5,25.9-36.2,50.8-56,74.7c-6.5-13.4-13.1-26.8-19.6-40.1l-15.1-31
		c-5.5-11.3-10.2-23.9-23.2-27.3c-14.7-3.9-24.9,7.3-34.2,17c-7.8,8-15.7,16.2-23.5,24.2c-10.9,11.3-21.9,22.5-32.8,33.8
		c-31.6-43.6-22-25.1-48.1-73c-5-9-18.2-11.9-26.1-5.9c-8.7,6.5-10.9,17.7-5.6,27.4c30,54.7,25,42.6,62.3,92.1
		c7.8,10.3,20.6,12.2,29.7,2.6c14.1-14.6,28.2-29.1,42.3-43.7c7.1-7.3,14.1-14.6,21.2-21.9c1.8-1.8,3.7-3.8,5.5-5.8
		c2,4.1,4,8.1,5.9,12.2c4.8,9.6,9.4,19.2,14.2,28.9c9.1,18.6,18.1,37.2,27.2,55.8c5.7,11.6,22.3,11.2,29.7,2.6
		c21.4-24.5,41.7-50.1,60.7-76.8C1104.6,569,1107.8,573.7,1110.6,578.5z"/>
	<path class="st0" d="M154.4,927.8c-33.7-10.8-67.7-20.6-101.9-29.3c-3-0.7-6.2,0-8.4,2.4c-2.4,2.5-2.6,5.5-2.3,8.9
		c4.3,31.3,10,62.5,17.3,93.1c1.2,5.2,8.3,9,12.7,5.4c27.5-21.7,56.2-41.4,85-60.9c3.4-2.3,5.3-6.8,3.8-10.8
		C160.8,932.7,158.4,929.1,154.4,927.8z M66,926.3c-0.1,0.1-0.2,0.2-0.4,0.5c0-0.2,0-0.4-0.1-0.7C65.7,926.1,65.9,926.2,66,926.3
		L66,926.3z M83.5,964.8c-1.8-8.3-3.4-16.7-4.7-25.1c9.4,2.6,18.9,5.4,28.4,8.2C99.2,953.4,91.1,958.9,83.5,964.8z"/>
	<path class="st0" d="M460.3,580.4c-4.9-11.7-21.1-20.7-32-11.6c-11.1,9.2-22.3,18.6-33.4,27.8c-18.6-54.1-37.3-108.1-55.9-162.2
		c-3.7-10.7-16.3-18.1-26.9-14.1c-10.5,4-16.8,15.3-12.8,26.7c22.1,64,44,127.9,66.1,191.9c4.2,12.2,21.3,20.5,31.9,11.7
		c11.6-9.6,23.1-19.2,34.8-28.9c21.9,54.7,43.9,109.3,65.8,164c4.2,10.4,15.9,18.2,26.9,14.1c10.1-3.7,17.3-15.5,12.8-26.7
		C511.8,708.8,486.1,644.7,460.3,580.4z"/>
	<path class="st0" d="M297.2,578.9c-0.5-10.7-8.3-19.8-18.9-19.8c-9.8,0-19.3,9.1-18.9,19.8c0.5,10.7,8.3,19.8,18.9,19.8
		C288.1,598.7,297.6,589.6,297.2,578.9z"/>
	<path class="st0" d="M1259.9,806.5c-9.8,0-19.3,9.1-18.9,19.8c0.5,10.7,8.3,19.8,18.9,19.8c9.8,0,19.3-9.1,18.9-19.8
		C1278.4,815.6,1270.6,806.5,1259.9,806.5z"/>
	<path class="st0" d="M1306.9,509.5c-5.1-5.7-14.4-8.2-21.6-4.6c-7.8,1.1-14,6.6-15.3,14.3c-11.7,66.8-21.3,134-28.9,201.4
		c-0.7,6,1.6,11.8,6.6,15.4c5.4,4,11.2,3.7,17.5,2c58.5-16.3,116-35.4,172.5-57.2c9.6-3.6,14.9-18.1,7.1-25.6
		C1396.4,608.7,1351.5,559.1,1306.9,509.5z M1288.5,682c4.6-38,10.1-76,16.3-114c25.4,28.1,51.1,56.1,78,82.7
		C1351.8,662.1,1320.3,672.5,1288.5,682z"/>
	<path class="st0" d="M1173.4,740.1c-10.6-3.7-22.7,1-26.9,12.3c-24,63.3-48.2,126.4-72.2,189.7c-4.6,12.1,3.2,29.4,17,29.4
		c15.1,0.1,30,0.1,45.2,0.1c-18.2,56-36.3,112-54.6,168.1c-3.4,10.7,0.5,24.2,11.6,28.1c10.1,3.6,23.2-0.8,26.9-12.3
		c21.4-65.9,42.7-131.6,64.1-197.5c4-12.1-2.8-29.3-17-29.3c-14.4,0-29,0-43.5-0.1c20.4-53.5,40.6-106.9,61-160.4
		C1189,757.6,1184.1,743.9,1173.4,740.1z"/>
	<path class="st0" d="M1437.3,366.7c-15.5,2.8-174.7,15.9-190.4,16.3c-10.2,0.2-18.8,10.3-17.3,20.4c1.7,10.7,10.5,18.3,21.5,18
		c15.8-0.4,174.9-13.4,190.4-16.3c9.8-1.8,18.9-9.2,17.3-20.4C1457.4,375.3,1448,364.7,1437.3,366.7z"/>
	<path class="st0" d="M1467.4,319.6c29.8-2.9-131.6,10.1-196.5,16.7c-10.1,1-18.8,9.8-17.3,20.4c1.6,10.1,10.7,19.1,21.5,18
		c17.6-1.8,178.9-15,196.5-16.7c10.1-1,18.8-9.8,17.3-20.4C1487.3,327.5,1478.2,318.5,1467.4,319.6z"/>
	<path class="st0" d="M199.1,145.1c-9.2-10.1-18.6-20.3-27.8-30.3c48.8-22.4,97.7-44.7,146.5-67.1c9.4-4.3,15.8-15.3,11.7-25.1
		c-3.8-9-14.9-15.1-24.9-10.4c-57.4,26.1-114.8,52.4-172.1,78.7c-10.5,4.8-18.1,19.9-9.4,29.5c8.9,9.7,17.9,19.5,26.7,29.3
		C101.4,169,53,188.3,4.6,207.7c-9.6,3.8-15.7,15.7-11.7,25.1c4,9.5,14.6,14.6,24.9,10.4c57.3-22.9,114.6-45.8,171.9-68.6
		C200.6,170.3,207.4,154.3,199.1,145.1z"/>
	<path class="st0" d="M406.9,802.8c-42.4-18.2-91.6,1.3-109.9,43.5c-18.3,42.3,1.2,91.5,43.5,109.9c42.3,18.3,91.5-1.2,109.9-43.5
		C468.7,870.3,449.2,821.2,406.9,802.8z M409.2,894.8c-8.5,19.6-31.3,28.6-50.9,20.2s-28.7-31.4-20.2-51s31.3-28.6,50.9-20.2
		C408.6,852.3,417.6,875.2,409.2,894.8z"/>
	<path class="st0" d="M490.5,157.7c-42.4-18.2-91.6,1.3-109.9,43.5c-18.3,42.3,1.2,91.5,43.5,109.9c42.3,18.3,91.5-1.2,109.9-43.5
		C552.3,225.2,532.8,176.1,490.5,157.7z M492.8,249.7c-8.5,19.6-31.3,28.6-50.9,20.2c-19.6-8.5-28.6-31.3-20.2-50.9
		c8.5-19.6,31.3-28.6,50.9-20.2C492.2,207.2,501.2,230.1,492.8,249.7z"/>
	<path class="st0" d="M1285.9,154c10.1-9.2,20.3-18.6,30.3-27.8c22.4,48.8,44.7,97.7,67.1,146.5c4.3,9.4,15.3,15.8,25.1,11.7
		c9-3.8,15.1-14.9,10.4-24.9c-26.1-57.3-52.3-114.7-78.7-172c-4.8-10.5-19.9-18.1-29.5-9.4c-9.7,8.9-19.5,17.9-29.3,26.7
		c-19.3-48.4-38.6-96.9-58-145.3c-3.8-9.6-15.7-15.7-25.1-11.7c-9.5,4-14.6,14.6-10.4,24.9c22.9,57.3,45.8,114.6,68.6,171.9
		C1260.7,155.5,1276.7,162.3,1285.9,154z"/>
	<path class="st0" d="M199.2,638.7c-33.2,0-60.2,27-60.2,60.2c0,33.2,27.1,60.2,60.2,60.2c33.2,0,60.2-27,60.2-60.2
		C259.4,665.7,232.4,638.7,199.2,638.7z M199.2,714.2c-8.5,0-15.3-6.8-15.3-15.3c-0.1-8.4,6.9-15.3,15.3-15.3
		c8.5,0,15.3,6.8,15.3,15.3S207.7,714.2,199.2,714.2z"/>
	<path class="st0" d="M967.7,683.7c-33.2,0-60.2,27-60.2,60.2c0,33.2,27.1,60.2,60.2,60.2c33.2,0,60.2-27,60.2-60.2
		C1027.9,710.7,1000.9,683.7,967.7,683.7z M967.7,759.2c-8.5,0-15.3-6.8-15.3-15.3c-0.1-8.4,6.9-15.3,15.3-15.3
		c8.5,0,15.3,6.8,15.3,15.3S976.2,759.2,967.7,759.2z"/>
	<path class="st0" d="M941.6,334.2c11-4.6,26-2.9,35.1,1.4c21.8,10,39.9,14.9,53.5,14.9c30.7-0.3,54.9-12.4,70.7-34.6
		c7.4-10.4,12.9-22.9,16.5-37.6c9.8-40.1-4.9-76.4-41.3-102.5c-10-7.1-20.3-12.6-29.2-16.6c-12.7-5.9-27.5,1.1-30.9,14.6
		c-2.7,10.5,2.6,21.7,12.6,26.1c6.8,3.1,14.8,7.2,22.3,12.7c27.7,20.2,26.3,41,23,54.8c-6.3,26-19.9,37.8-44.1,38.1
		c-5.1,0.1-16.9-2.8-34.5-10.8c-16.7-7.7-45.4-12.7-71.2-1.8c-17.9,7.7-31.1,21.5-37.7,40.2c-11.2,31.3-4.6,55.1,6.7,71.5
		c9.7,14,31.1,12.4,38.5-3c0,0,5.4-11.9-2.3-23.5c-5.1-7.6-5.1-17.6-0.7-30C931.1,341.4,935.2,337,941.6,334.2z"/>
</g>
<g id="Layer_2_00000103257841616467382820000013806723090080510613_">
</g>
</svg>
