<?xml version="1.0" encoding="utf-8"?>
<!-- Generator: Adobe Illustrator 27.4.1, SVG Export Plug-In . SVG Version: 6.00 Build 0)  -->
<svg version="1.1" id="b" xmlns="http://www.w3.org/2000/svg" xmlns:xlink="http://www.w3.org/1999/xlink" x="0px" y="0px"
	 viewBox="0 0 566.9 566.9" style="enable-background:new 0 0 566.9 566.9;" xml:space="preserve">
<style type="text/css">
	.st0{fill:#FFFFFF;}
	.st1{fill:#37008A;}
</style>
<g id="c">
	<g>
		<circle class="st0" cx="283.5" cy="283.5" r="283.5"/>
	</g>
</g>
<g id="c_00000183218421144901487520000010034912192925141895_">
	<g>
		<path class="st1" d="M127.9,258.2h311c8.4,0,15.2,6.8,15.2,15.2v20c0,8.4-6.8,15.2-15.2,15.2h-311c-8.4,0-15.2-6.8-15.2-15.2v-20
			C112.7,265,119.5,258.2,127.9,258.2z"/>
		<g>
			<path class="st1" d="M439,347.5h-311c-8.4,0-15.2,6.8-15.2,15.2v20c0,8.4,6.8,15.2,15.2,15.2h311c8.4,0,15.2-6.8,15.2-15.2v-20
				C454.2,354.3,447.4,347.5,439,347.5z"/>
			<path class="st1" d="M439,168.9h-311c-8.4,0-15.2,6.8-15.2,15.2v20c0,8.4,6.8,15.2,15.2,15.2h311c8.4,0,15.2-6.8,15.2-15.2v-20
				C454.2,175.7,447.4,168.9,439,168.9z"/>
		</g>
	</g>
</g>
</svg>
