<?xml version="1.0" encoding="UTF-8"?>
<svg id="b" data-name="Layer 2" xmlns="http://www.w3.org/2000/svg" viewBox="0 0 689.58 689.58">
  <g id="c" data-name="Layer 1">
    <g>
      <rect x="159.39" y="305.19" width="370.8" height="79.2" style="fill: #37008a;"/>
      <path d="m662.47,210.57c-17.37-41.06-42.22-77.93-73.88-109.59-31.66-31.66-68.53-56.51-109.59-73.88C436.48,9.12,391.32,0,344.79,0s-91.69,9.12-134.22,27.11c-41.06,17.37-77.93,42.22-109.59,73.88-31.66,31.66-56.51,68.53-73.88,109.59C9.12,253.1,0,298.25,0,344.79s9.12,91.69,27.11,134.22c17.37,41.06,42.22,77.93,73.88,109.59,31.66,31.66,68.53,56.51,109.59,73.88,42.52,17.99,87.68,27.11,134.22,27.11s91.69-9.12,134.21-27.11c41.06-17.37,77.93-42.22,109.59-73.88,31.66-31.66,56.51-68.53,73.88-109.59,17.99-42.52,27.1-87.68,27.1-134.22s-9.12-91.69-27.1-134.22Zm-317.68,427.9c-161.94,0-293.68-131.74-293.68-293.68S182.85,51.11,344.79,51.11s293.68,131.75,293.68,293.68-131.75,293.68-293.68,293.68Z" style="fill: #37008a;"/>
    </g>
  </g>
</svg>