<?xml version="1.0" encoding="UTF-8"?>
<svg id="b" data-name="Layer 2" xmlns="http://www.w3.org/2000/svg" viewBox="0 0 473.87 560.06">
  <g id="c" data-name="Layer 1">
    <g>
      <path d="m34.9,434.7c-1.6,0-2.9-1.3-2.9-2.9V34.9c0-1.6,1.3-2.9,2.9-2.9h226.57v82.11c0,7.83,6.35,14.17,14.17,14.17h82.11v121.19c5.87-2.05,12.05-3.12,18.38-3.12,4.61,0,9.18.58,13.62,1.68V109.27c0-9.32-3.63-18.09-10.22-24.68L305.15,10.22h0c-6.59-6.59-15.36-10.22-24.68-10.22H34.9C15.66,0,0,15.66,0,34.9v396.9c0,19.24,15.66,34.9,34.9,34.9h125.41c-.88-11.08,1.57-22.16,7.19-32H34.9Z" style="fill: #37008a;"/>
      <rect x="58.72" y="99.14" width="160.01" height="40.53" rx="17.55" ry="17.55" style="fill: #37008a;"/>
      <rect x="58.72" y="175.11" width="215.13" height="40.53" rx="17.55" ry="17.55" style="fill: #37008a;"/>
      <path d="m76.27,251.07c-9.69,0-17.55,7.86-17.55,17.55v5.43c0,9.69,7.86,17.55,17.55,17.55h151.21c2.52-12.54,9.14-23.78,18.92-31.97,4.01-3.36,8.45-6.12,13.16-8.24-1.06-.2-2.15-.32-3.26-.32H76.27Z" style="fill: #37008a;"/>
      <path d="m76.27,327.03c-9.69,0-17.55,7.86-17.55,17.55v5.43c0,9.69,7.86,17.55,17.55,17.55h83.88c.19-6.8,1.62-13.63,4.35-20.21,3.29-7.95,8.18-14.82,14.23-20.31h-102.46Z" style="fill: #37008a;"/>
      <path d="m466.25,438c-10.1-13.15-10.1-31.46,0-44.61,17.18-22.37,3.69-54.95-24.28-58.62-16.45-2.16-29.39-15.1-31.55-31.55h0c-1.9-14.45-11.52-25.04-23.46-29.52-4.13-1.55-8.53-2.38-12.99-2.38-5.92,0-11.94,1.46-17.54,4.58-1.58.88-3.13,1.89-4.64,3.04h0c-6.58,5.05-14.44,7.58-22.31,7.58s-15.73-2.53-22.31-7.58h0c-6.81-5.23-14.57-7.62-22.17-7.62-3.01,0-6,.38-8.89,1.1-12.02,3-22.42,11.97-26.29,24.88-.57,1.89-1,3.86-1.27,5.91h0c-1.61,12.24-9.19,22.54-19.74,27.89-3.63,1.84-7.6,3.1-11.81,3.65h0c-18.91,2.48-31.19,18.18-31.85,35-.32,8.06,2.01,16.37,7.57,23.61,9.07,11.81,9.99,27.77,2.77,40.43-.82,1.44-1.74,2.84-2.77,4.18h0c-6.2,8.07-8.38,17.46-7.36,26.34,1.81,15.76,13.76,29.93,31.64,32.27h0c16.45,2.16,29.39,15.1,31.55,31.55h0c2.55,19.45,19.08,31.9,36.44,31.9,7.6,0,15.36-2.39,22.17-7.62h0c6.58-5.05,14.44-7.58,22.31-7.58s15.73,2.53,22.31,7.58h0c6.81,5.23,14.57,7.62,22.17,7.62,17.36,0,33.89-12.45,36.44-31.9h0c2.16-16.45,15.1-29.39,31.55-31.55,27.97-3.67,41.46-36.25,24.28-58.62h0Zm-91.2,41.97c-6.04,3.02-12.19,5.25-18.44,6.68-6.26,1.43-13.02,2.15-20.26,2.15-17.51,0-30.29-4-38.37-12-3.29-3.26-6.06-7.42-8.34-12.46-3.31-7.33-5.55-16.52-6.71-27.6h-18.33v-16.3h17.43v-9.39c0-.98.07-1.85.23-2.6h-17.65v-16.07h18.78c2.57-17.5,8.6-30.18,18.11-38.02,9.5-7.84,23.76-11.77,42.78-11.77,4.26,0,8.31.13,12.17.38.93.06,1.86.12,2.77.19,4.67.38,8.9.94,12.67,1.7v23.76c-5.43-.6-10.33-1.02-14.71-1.25-.25-.01-.48-.02-.73-.03-4.12-.2-8.18-.31-12.17-.31-11.17,0-19.09,1.85-23.77,5.54-4.68,3.7-7.69,10.3-9.05,19.8h51.15v16.07h-52.51v12h52.51v16.3h-51.61c1.2,10.11,3.92,17.05,8.15,20.82,4.22,3.77,11.84,5.66,22.86,5.66,4.98,0,10.38-.68,16.18-2.04,5.81-1.36,11.43-3.17,16.86-5.43v24.22Z" style="fill: #37008a;"/>
    </g>
  </g>
</svg>