<?xml version="1.0" encoding="UTF-8"?>
<svg id="Layer_1" data-name="Layer 1" xmlns="http://www.w3.org/2000/svg" viewBox="0 0 16 16">
  <rect width="16" height="16" style="fill: #ffb3c1;"/>
  <path id="_0" data-name="0" d="m5.94,11.91h-1.82v-5.44h-2.12v-1.57h6.06v1.57h-2.12v5.44Z" style="fill: #37008c; fill-rule: evenodd;"/>
  <path id="_4" data-name="4" d="m7.99,9.65h1.84l.04.13c.03.09.08.19.17.31.04.06.09.11.14.15.05.04.1.08.16.11.03.02.06.03.09.05.07.04.15.06.23.08.14.03.3.05.49.05.31,0,.55-.05.7-.15.03-.02.06-.04.08-.06.05-.05.09-.1.13-.15.06-.09.09-.18.09-.27,0-.01,0-.03,0-.04,0-.06,0-.12-.03-.18-.03-.07-.07-.14-.14-.19-.04-.03-.08-.06-.13-.08-.11-.05-.26-.09-.45-.12l-.94-.15c-.4-.07-.79-.18-1.15-.33-.23-.09-.44-.22-.62-.38-.09-.08-.18-.17-.26-.27-.21-.27-.32-.62-.34-1.05,0-.02,0-.05,0-.07,0-.23.03-.46.1-.68.06-.17.13-.34.24-.49.17-.25.4-.47.66-.63.1-.06.2-.11.3-.16.23-.1.48-.18.73-.22.23-.04.49-.06.76-.06.17,0,.34,0,.51.03.16.02.31.04.45.08.06.02.12.03.18.05.3.1.56.23.76.39,0,0,.01.01.02.02.21.17.38.34.5.53.13.18.22.36.28.53.02.05.04.1.05.15.03.09.05.17.07.24,0,0,0,.02,0,.02l.03.16h-1.79l-.03-.11s-.02-.06-.03-.08c-.03-.05-.06-.11-.11-.16-.04-.04-.08-.08-.12-.11-.04-.03-.09-.06-.14-.09-.03-.01-.05-.03-.08-.04-.06-.03-.12-.05-.19-.07-.12-.03-.25-.04-.41-.04s-.3.02-.42.05c-.05.01-.1.03-.15.06-.05.02-.09.05-.14.08-.07.05-.13.11-.17.17-.06.1-.09.2-.09.3,0,.07.01.13.04.19.03.07.08.13.15.17.02.02.05.03.07.04.08.04.16.07.25.1.12.04.25.07.39.09l.99.16c.3.05.6.13.88.24.07.03.14.06.21.09.33.16.6.38.8.66.13.18.22.39.26.61.03.15.04.3.04.45,0,.44-.11.82-.34,1.17-.17.25-.39.46-.65.62-.11.07-.22.13-.34.18-.37.17-.82.26-1.33.28-.08,0-.16,0-.24,0-.4,0-.76-.04-1.07-.12-.06-.02-.12-.03-.18-.05-.32-.11-.59-.24-.8-.4-.02-.01-.03-.02-.05-.04-.11-.09-.22-.18-.31-.29-.08-.09-.16-.18-.22-.28-.06-.08-.11-.17-.15-.26-.05-.09-.09-.17-.12-.25,0-.02-.01-.04-.02-.06-.06-.18-.1-.32-.12-.44l-.03-.17Z" style="fill: #37008c; fill-rule: evenodd;"/>
  <g id="g-1">
    <path id="path-1" d="m14.04,4.8c.06.01.12.01.17.01.13,0,.25-.02.34-.07.01,0,.02-.01.04-.02.08-.04.15-.09.21-.16.07-.07.12-.16.15-.25s.05-.19.05-.29-.02-.2-.05-.29c-.03-.09-.08-.18-.15-.25-.02-.02-.04-.04-.06-.06-.06-.05-.12-.09-.19-.12-.05-.02-.11-.04-.17-.05-.06,0-.11-.01-.17-.01-.05,0-.11,0-.16.01-.06,0-.13.03-.19.05-.01,0-.03.01-.04.02-.08.04-.15.09-.21.16-.07.07-.12.16-.15.25-.03.09-.05.19-.05.29s.02.19.05.29.08.18.15.25c.02.02.04.05.07.07.05.05.12.08.18.11.05.02.11.04.17.05Zm.59-.88h-.23v-.03s-.02-.02-.03-.03c0,0-.01-.02-.02-.02,0,0,0,0-.01-.01-.01,0-.02-.02-.04-.02-.01,0-.02,0-.04,0-.01,0-.02,0-.04,0-.02,0-.04,0-.06,0-.04,0-.07.03-.09.06-.03.04-.05.09-.05.15,0,0,0,.01,0,.02,0,.06.02.12.05.16.03.05.08.07.15.07.03,0,.06,0,.08-.01.01,0,.02-.01.03-.02,0,0,.01-.01.02-.02,0,0,.01-.02.02-.02,0,0,0-.01,0-.02v-.03h.24v.03s-.01.02-.01.02c0,.02-.01.04-.02.06-.01.03-.03.06-.06.1-.02.02-.04.04-.06.05-.02.01-.04.02-.05.03-.04.02-.09.03-.14.03-.01,0-.03,0-.04,0-.09,0-.16-.02-.22-.05,0,0-.02-.01-.03-.02-.05-.03-.08-.07-.12-.11-.01-.02-.02-.03-.03-.05-.03-.07-.05-.14-.05-.21s.02-.14.05-.21c.03-.06.08-.12.14-.16,0,0,0,0,0,0,.04-.02.08-.04.12-.05.04,0,.08-.01.13-.01.03,0,.05,0,.07,0,.03,0,.05,0,.07.01.01,0,.03,0,.04.01.02,0,.04.02.06.03.02.01.04.03.05.05.01.01.02.03.03.04.01.02.02.03.03.05,0,0,0,0,0,0,0,.01,0,.02.01.03,0,.02.01.04.01.05v.03Zm-.42.7s.08,0,.12-.01c.04,0,.09-.02.13-.04.05-.02.1-.06.15-.1.01-.01.02-.02.03-.04.05-.06.09-.12.11-.19.02-.07.04-.14.04-.21s-.01-.15-.04-.22c-.02-.07-.06-.13-.11-.19-.05-.05-.1-.1-.17-.13,0,0,0,0-.01,0-.04-.02-.09-.03-.13-.04-.04,0-.08,0-.12,0-.04,0-.09,0-.13.01-.04,0-.09.02-.13.04-.07.03-.13.08-.18.13-.05.06-.09.12-.11.19-.02.07-.04.14-.04.22s.01.14.04.21c.02.07.06.13.11.19.04.05.1.09.16.12,0,0,.01,0,.02.01.04.02.09.03.14.04.04,0,.08,0,.12,0Z" style="fill: #37008c; fill-rule: evenodd;"/>
  </g>
</svg>